<svg xmlns="http://www.w3.org/2000/svg" xmlns:xlink="http://www.w3.org/1999/xlink" viewBox="0 0 109.71 109.71"><defs><style>.cls-1{fill:#0c71c3;}.cls-2,.cls-5{fill:#fff;}.cls-3{fill:url(#radial-gradient);}.cls-4{fill:url(#radial-gradient-2);}.cls-5{font-size:12.41px;font-family:Poppins-Bold, Poppins;font-weight:700;}.cls-6{font-size:10.95px;}</style><radialGradient id="radial-gradient" cx="34.51" cy="53.54" r="60.73" gradientUnits="userSpaceOnUse"><stop offset="0.45" stop-color="#fff" stop-opacity="0"/><stop offset="0.5" stop-color="#fff" stop-opacity="0.02"/><stop offset="0.57" stop-color="#fff" stop-opacity="0.09"/><stop offset="0.65" stop-color="#fff" stop-opacity="0.19"/><stop offset="0.73" stop-color="#fff" stop-opacity="0.34"/><stop offset="0.82" stop-color="#fff" stop-opacity="0.53"/><stop offset="0.92" stop-color="#fff" stop-opacity="0.76"/><stop offset="1" stop-color="#fff"/></radialGradient><radialGradient id="radial-gradient-2" cx="123.49" cy="83.39" r="54.48" gradientTransform="translate(-50.81 -62.66) rotate(15.71)" gradientUnits="userSpaceOnUse"><stop offset="0.46" stop-color="#fff" stop-opacity="0"/><stop offset="0.93" stop-color="#fff"/></radialGradient></defs><g id="Layer_2" data-name="Layer 2"><g id="Layer_1-2" data-name="Layer 1"><path class="cls-1" d="M94.78,109.71H14.93A14.92,14.92,0,0,1,0,94.78V14.93A14.92,14.92,0,0,1,14.93,0H94.78c6.77,0,14.93.76,14.93,14.93V94.78A14.92,14.92,0,0,1,94.78,109.71Z"/><path class="cls-2" d="M56,54.12a64,64,0,0,0-12.79,1.54c-3.43.65-6.86,1.35-10.28,2,0,0-.11-.06-.37-.23l16.14-3.87a5.26,5.26,0,0,0-3.62-1.26A64.74,64.74,0,0,0,36,53.58a12.27,12.27,0,0,0-7,4.85,1.13,1.13,0,0,1-.76.52c-2,.36-4,.72-6,1.12-.6.12-.74,0-.84-.64C20.94,57,20.9,57,18.42,57c-1.93,0-2.61-.42-2,2.38.22.95.1,2.25.69,2.76S19,62.11,20,62c10.45-1.65,20.9-3.36,31.37-5a42.37,42.37,0,0,1,7.13-.88c-.89.2-1.78.42-2.67.59L37.15,60.15,19.47,63.46c-.13,0-.33,0-.37.08-.21.36-1-.08-.9.62s.63.47,1,.52a7.17,7.17,0,0,1,2.86.95,5.16,5.16,0,0,0,3.3.51A128,128,0,0,0,39,64.44a42.33,42.33,0,0,1,10.43-.34c1.33.1,2.65.28,4,.45a1.3,1.3,0,0,0,1.13-.41c2.5-2.24,5-4.46,7.69-6.49a43.51,43.51,0,0,1,4.1-2.78A67.46,67.46,0,0,0,56,54.12Z"/><path class="cls-2" d="M20.43,50.37l4.18,5.52-2.22,3.22a1.79,1.79,0,0,0,2-1c.42-.76,1-1.45,1.42-2.2A2.65,2.65,0,0,0,25,52.19c-1.44-1-2.9-1.92-4.51-3.19L30.7,47.9a1.69,1.69,0,0,1,1.16.42c1.55,1.07,3.13,2.12,4.65,3.23a2,2,0,0,0,2.21.23L37.18,50.7l-5-3.46a2.23,2.23,0,0,0-1.58-.43L21.1,47.89c-.68.07-1.37.14-1.55,1S19.89,50,20.43,50.37Z"/><path class="cls-2" d="M68.33,42.05a5.44,5.44,0,0,1,6.8,2.14s-2-4.32-6.17-3.39a5.79,5.79,0,0,0-7.42-3S67.05,36.89,68.33,42.05Z"/><path class="cls-2" d="M54.37,47.39a3.46,3.46,0,0,1,4.32,1.35S57.43,46,54.76,46.59a3.69,3.69,0,0,0-4.71-1.92S53.55,44.1,54.37,47.39Z"/><g id="surface1"><path class="cls-3" d="M46.51,38.39A20.94,20.94,0,0,0,58.32,57.23l-10-27.36A20.69,20.69,0,0,0,46.51,38.39Zm35.08-1.06c0-2.58-1.39-4.38-2.19-5.77-1.06-1.74-2.06-3.19-2.06-4.91a4,4,0,0,1,4-3.71h.27a20.93,20.93,0,0,0-31.22,3.33,2,2,0,0,0,.8,0c2.19,0,5.58-.26,5.58-.26a.86.86,0,0,1,.13,1.72s-1.13.14-2.39.2l7.76,23.27,4.58-13.75L63.42,28c-1.12-.06-2.2-.2-2.2-.2a.86.86,0,0,1,.14-1.72s3.46.26,5.51.26,5.58-.26,5.58-.26a.86.86,0,0,1,.14,1.72s-1.14.14-2.4.2l7.71,23,2.09-7A19.31,19.31,0,0,0,81.59,37.33ZM67.82,40.21,61.54,58.47a20.65,20.65,0,0,0,5.91.85,21.14,21.14,0,0,0,7-1.18c0-.1-.12-.19-.16-.29Zm18-11.88A16.22,16.22,0,0,1,86,30.49a19.88,19.88,0,0,1-1.6,7.5L78,56.49a21,21,0,0,0,7.85-28.16Z"/><path class="cls-4" d="M42.26,31.3A26.17,26.17,0,1,0,74.54,13.19,26.2,26.2,0,0,0,42.26,31.3Zm2.51.71a23.56,23.56,0,1,1,16.3,29.05A23.59,23.59,0,0,1,44.77,32Z"/></g><text class="cls-5" transform="translate(16.22 81.06)">Boat Rental<tspan class="cls-6"><tspan x="0" y="11.58">System</tspan></tspan></text><path class="cls-2" d="M38.94,34.16a2.9,2.9,0,0,0-.51,0h-.26c-.12,0-.14,0-.14-.15,0-.79,0-1.48,0-2.12,0-.09,0-.13,0-.15s0,0,.15,0h.21a3,3,0,0,0,.6,0,.48.48,0,0,0,.43-.42.49.49,0,0,0-.45-.43,5.51,5.51,0,0,0-1.07,0,.87.87,0,0,0-.78.93v.37H37a2,2,0,0,0-2.21,1.63,3.05,3.05,0,0,0,.32,2,18.21,18.21,0,0,0,1,1.6l.08.13a1,1,0,0,1,.23.85c-.07.22-.3.39-.69.53a3.63,3.63,0,0,1-1.93.1,1.84,1.84,0,0,1-1.24-.78c-.38-.52-.78-1-1.18-1.53a4.31,4.31,0,0,0-1.81-1.38,3.86,3.86,0,0,0-4.47,1.17l-.45.52c-.27.31-.55.64-.84.94a1.91,1.91,0,0,1-1.83.54A4.89,4.89,0,0,1,20,37.67a3.2,3.2,0,0,1-1.31-2.73v-.2l-.2,0-.06,0h0a1.87,1.87,0,0,0-.34-.08l-.25,0v.26a4.16,4.16,0,0,0,2.59,4.12,2.36,2.36,0,0,0,.28.12,3.2,3.2,0,0,0,4.22-1l.18-.21.72-.85A2.83,2.83,0,0,1,28,36a3,3,0,0,1,2.27.9c.32.35.62.74.92,1.11s.36.45.55.67l.1.13a3.31,3.31,0,0,0,.61.63,4.11,4.11,0,0,0,4.1.11,2,2,0,0,0,.58-.59,1.64,1.64,0,0,0-.19-1.84l-.3-.46a8.73,8.73,0,0,1-.52-.82A2.86,2.86,0,0,1,35.66,34a1.16,1.16,0,0,1,.45-.78A1.14,1.14,0,0,1,37,33c.15,0,.16,0,.15.17a4.44,4.44,0,0,0,0,.63c0,.11,0,.21,0,.31a.74.74,0,0,0,.58.79,6.35,6.35,0,0,0,1.2.09.64.64,0,0,0,.41-.17.39.39,0,0,0,.11-.26C39.45,34.34,39.19,34.19,38.94,34.16Z"/><path class="cls-2" d="M53.54,34.77c0-.21,0-.41,0-.62a.85.85,0,0,0-1-.95h-3v-.71h.85c.91,0,2.16,0,2.45,0a.7.7,0,0,0,.55-.4,2.08,2.08,0,0,0,0-1.66,1,1,0,0,0-.79-.39c-.69,0-1.38,0-2.06,0h-1c0-.13,0-.25,0-.37v-.83c0-.67,0-1.37,0-2.06a1.41,1.41,0,0,0-.16-.54,1.57,1.57,0,0,1-.09-.23l0-.08L49,25.82a.82.82,0,0,0-.2-.12l-.16,0h-.21l-.31,0h-.06l0,0h-.13a1,1,0,0,0-1.09,1.09V27h-.22l-4.64,0c-1.06,0-1.55.5-1.54,1.55l.05,8.71a1.58,1.58,0,0,0,.4,1.15,1.23,1.23,0,0,0,.33.23,1.94,1.94,0,0,0,.84.15h1.13c1.2,0,2.39,0,3.58,0h.14s0,0,0,.14A1,1,0,0,0,48,40.12h.32c.86,0,1.23-.39,1.23-1.25l0-3v-.18h1.09l2,0A.83.83,0,0,0,53.54,34.77ZM41.94,38c-.47,0-.6-.13-.6-.61,0-1.08,0-2.17,0-3.26V31.88c0-1.09,0-2.19,0-3.29a2,2,0,0,1,0-.28v0a.54.54,0,0,1,.58-.34l3.44,0H47c.63,0,.74-.11.73-.78q0-.51.12-.6c.09-.07.29-.08.63,0,.11,0,.16.05.17.32,0,.89,0,1.78,0,2.67l0,2.66c0,2.22,0,4.44,0,6.66a1.07,1.07,0,0,1-.07.33,2.92,2.92,0,0,1-.78,0,.65.65,0,0,1,0-.13,1.13,1.13,0,0,1,0-.26v-.13c0-.55-.16-.69-.7-.69l-4.81,0Zm10.69-6.38h-3.1v-.67h1.23l1.7,0c.13,0,.16,0,.16,0a.29.29,0,0,1,0,.14v.28A1.7,1.7,0,0,1,52.63,31.59Zm0,3.18-3.06,0v-.69l3.07,0h0c.06,0,.07.11,0,.3a.79.79,0,0,0,0,.37Z"/><path class="cls-2" d="M47.48,37.39l.05,0,.14,0v-.5l0-7.63v-.05a.51.51,0,0,0-.05-.31c0-.05-.19-.3-.42-.29s-.36.27-.39.32a.5.5,0,0,0,0,.29v.06l0,7.56v.06a1,1,0,0,0,0,.33.51.51,0,0,0,.27.27l.08,0A.41.41,0,0,0,47.48,37.39Z"/><path class="cls-2" d="M43.66,28.23l-1.16,0a.81.81,0,0,0-.85.84c0,.45,0,.8,0,1.13a.63.63,0,0,0,.29.47.41.41,0,0,0,.16,0c.27,0,.4-.31.42-.5a5.24,5.24,0,0,0,0-1,.4.4,0,0,1,0-.11.28.28,0,0,1,.14,0,7.29,7.29,0,0,0,1,0,.47.47,0,0,0,.44-.41A.42.42,0,0,0,43.66,28.23Z"/></g></g></svg>